<?xml version="1.0" encoding="UTF-8"?>
<svg width="125px" height="116px" viewBox="0 0 125 116" version="1.1" xmlns="http://www.w3.org/2000/svg" xmlns:xlink="http://www.w3.org/1999/xlink">
    <!-- Generator: Sketch 49.2 (51160) - http://www.bohemiancoding.com/sketch -->
    <title>Group 16</title>
    <desc>Created with Sketch.</desc>
    <defs></defs>
    <g id="Page-1" stroke="none" stroke-width="1" fill="none" fill-rule="evenodd">
        <g id="Open-Data" transform="translate(-363.000000, -7682.000000)" fill="#122BE1">
            <g id="Group-16" transform="translate(361.039050, 7682.000000)">
                <path d="M107.3004,73.635 C106.9974,73.722 106.6524,73.749 106.2774,73.749 C104.6244,73.749 104.0484,73.047 104.0484,70.242 C104.0484,67.476 104.6394,66.729 106.5654,66.729 C107.3724,66.729 108.2484,66.903 108.9234,67.176 L109.1514,65.166 C108.4074,64.863 107.3724,64.674 106.4364,64.674 C103.1154,64.674 101.6784,66.414 101.6784,70.269 C101.6784,74.037 102.9564,75.849 106.3374,75.849 C107.4294,75.849 108.5934,75.606 109.3254,75.258 L109.3254,69.807 L107.3004,69.807 L107.3004,73.635 Z M98.6004,70.254 C98.6004,74.325 97.3374,75.834 94.2744,75.834 C91.2684,75.834 89.9424,74.238 89.9424,70.254 C89.9424,66.27 91.2114,64.689 94.2744,64.689 C97.3374,64.689 98.6004,66.27 98.6004,70.254 Z M96.2304,70.254 C96.2304,67.392 95.7414,66.786 94.2744,66.786 C92.8194,66.786 92.3154,67.407 92.3154,70.254 C92.3154,73.116 92.8194,73.752 94.2864,73.752 C95.7414,73.752 96.2304,73.101 96.2304,70.254 Z M39.9144,75.834 C40.7634,75.834 41.6964,75.618 42.3294,75.303 L42.1014,73.389 C41.5674,73.635 40.9494,73.794 40.2474,73.794 C38.4744,73.794 37.8564,73.002 37.8564,70.182 C37.8564,67.536 38.4444,66.771 40.2024,66.771 C40.9074,66.771 41.5794,66.918 42.0684,67.104 L42.3024,65.106 C41.7534,64.863 40.8054,64.674 40.0464,64.674 C36.8934,64.674 35.4864,66.483 35.4864,70.182 C35.4864,74.112 36.9084,75.834 39.9144,75.834 Z M113.1624,75.645 L115.4754,75.645 L115.4754,64.863 L114.3204,64.863 L113.1624,64.863 L113.1624,75.645 Z M73.3854,75.834 C70.3824,75.834 69.0594,74.238 69.0594,70.257 C69.0594,66.27 70.3254,64.689 73.3854,64.689 C76.4514,64.689 77.7144,66.27 77.7144,70.257 C77.7144,74.325 76.4514,75.834 73.3854,75.834 Z M75.3444,70.257 C75.3444,67.392 74.8554,66.786 73.3854,66.786 C71.9334,66.786 71.4294,67.407 71.4294,70.257 C71.4294,73.116 71.9334,73.749 73.4004,73.749 C74.8554,73.749 75.3444,73.101 75.3444,70.257 Z M32.4144,73.605 L27.9684,73.605 L27.9684,71.046 L31.5234,71.046 L31.5234,69.15 L27.9684,69.15 L27.9684,66.93 L32.2014,66.93 L32.1564,64.863 L25.7154,64.863 L25.7154,75.645 L32.3574,75.645 L32.4144,73.605 Z M47.9724,71.175 L51.3114,71.175 L51.3114,75.645 L53.5674,75.645 L53.5674,64.863 L51.3114,64.863 L51.3114,69.078 L47.9724,69.078 L47.9724,64.863 L45.7164,64.863 L45.7164,75.645 L47.9724,75.645 L47.9724,71.175 Z M87.5874,73.548 L83.6184,73.548 L83.6184,64.86 L81.3504,64.86 L81.3504,75.645 L87.5334,75.645 L87.5874,73.548 Z M121.7904,73.605 L121.7904,71.046 L125.3454,71.046 L125.3454,69.15 L121.7904,69.15 L121.7904,66.93 L126.0174,66.93 L125.9754,64.863 L119.5344,64.863 L119.5344,75.645 L126.1764,75.645 L126.2334,73.605 L121.7904,73.605 Z M17.5974,75.645 L19.8804,75.645 L19.8804,66.975 L22.4994,66.975 L22.4574,64.863 L15.0354,64.863 L14.9754,66.975 L17.5974,66.975 L17.5974,75.645 Z M65.5254,75.645 L65.5254,64.863 L63.5424,64.863 L63.5424,70.239 L63.5694,71.388 L63.5424,71.403 L59.5434,64.863 L57.6024,64.863 L57.6024,75.645 L59.5974,75.645 L59.5974,69.981 L59.5854,68.817 L59.6124,68.802 L60.2154,69.807 L63.9144,75.645 L65.5254,75.645 Z M58.5324,85.275 L51.1134,85.275 L51.0564,87.387 L53.6724,87.387 L53.6724,96.06 L55.9584,96.06 L55.9584,87.387 L58.5774,87.387 L58.5324,85.275 Z M69.3894,92.397 L69.3894,85.275 L67.1334,85.275 L67.1334,92.367 C67.1334,93.618 66.6414,94.134 65.4324,94.134 C64.2234,94.134 63.7194,93.603 63.7194,92.367 L63.7194,85.275 L61.4514,85.275 L61.4514,92.397 C61.4514,94.983 62.8134,96.246 65.4324,96.246 C68.0514,96.246 69.3894,94.983 69.3894,92.397 Z M47.9814,89.793 L44.4564,89.793 L44.4564,87.387 L48.6714,87.387 L48.6414,85.275 L42.2004,85.275 L42.2004,96.06 L44.4564,96.06 L44.4564,91.791 L47.9514,91.791 L47.9814,89.793 Z M79.1964,90.654 L79.2264,91.803 L79.1964,91.818 L75.1974,85.275 L73.2564,85.275 L73.2564,96.06 L75.2544,96.06 L75.2544,90.396 L75.2394,89.229 L75.2694,89.217 L75.8754,90.222 L79.5714,96.06 L81.1794,96.06 L81.1794,85.275 L79.1964,85.275 L79.1964,90.654 Z M18.9204,94.221 C17.9544,94.221 17.0784,93.948 16.2444,93.504 L15.9444,95.487 C16.7784,95.976 17.8434,96.246 18.9624,96.246 C21.2934,96.246 22.6464,94.983 22.6464,92.868 C22.6464,89.331 18.1584,89.964 18.1584,88.239 C18.1584,87.633 18.5034,87.174 19.7244,87.174 C20.4594,87.174 21.2364,87.315 22.0404,87.588 L22.3014,85.638 C21.5544,85.29 20.5614,85.104 19.5834,85.104 C17.0904,85.104 15.9834,86.514 15.9834,88.338 C15.9834,91.863 20.4744,91.245 20.4744,93.015 C20.4744,93.804 20.0004,94.221 18.9204,94.221 Z M27.7194,96.06 L30.0024,96.06 L30.0024,87.387 L32.6214,87.387 L32.5794,85.275 L25.1574,85.275 L25.1004,87.387 L27.7194,87.387 L27.7194,96.06 Z M38.0814,85.275 L36.9264,85.275 L35.7684,85.275 L35.7684,96.06 L38.0814,96.06 L38.0814,85.275 Z M90.4164,94.05 C90.1134,94.137 89.7714,94.164 89.3964,94.164 C87.7404,94.164 87.1644,93.459 87.1644,90.654 C87.1644,87.891 87.7554,87.144 89.6844,87.144 C90.4914,87.144 91.3644,87.315 92.0394,87.588 L92.2704,85.578 C91.5234,85.275 90.4914,85.092 89.5524,85.092 C86.2314,85.092 84.7944,86.829 84.7944,90.684 C84.7944,94.452 86.0694,96.261 89.4534,96.261 C90.5484,96.261 91.7094,96.015 92.4414,95.673 L92.4414,90.222 L90.4164,90.222 L90.4164,94.05 Z M70.1154,105.09 L70.1154,112.119 L70.1424,113.271 L70.1154,113.286 L69.5244,112.281 L65.2494,105.09 L64.0044,105.09 L64.0044,115.872 L65.2224,115.872 L65.2224,108.627 L65.2074,107.463 L65.2404,107.448 L65.8134,108.456 L70.3164,115.872 L71.3064,115.872 L71.3064,105.09 L70.1154,105.09 Z M57.8274,115.872 L59.2194,115.872 L59.2194,105.09 L58.5234,105.09 L57.8274,105.09 L57.8274,115.872 Z M21.4614,110.166 C22.5984,110.454 23.2734,111.273 23.2734,112.812 C23.2734,114.753 22.3554,115.872 20.0514,115.872 L16.3974,115.872 L16.3974,105.09 L19.9224,105.09 C21.8934,105.09 22.8864,105.966 22.8864,107.766 C22.8864,109.086 22.3104,109.833 21.4614,110.136 L21.4614,110.166 Z M17.7204,109.734 L19.9374,109.734 C21.0594,109.734 21.5634,109.188 21.5634,108.006 C21.5634,106.758 21.0474,106.323 19.8804,106.323 L17.7204,106.323 L17.7204,109.734 Z M20.0694,114.669 C21.2484,114.669 21.9084,114.18 21.9084,112.71 C21.9084,111.387 21.3054,110.841 20.0094,110.841 L17.7204,110.841 L17.7204,114.669 L20.0694,114.669 Z M42.1014,110.997 L44.6754,115.872 L43.0644,115.872 L40.8474,111.258 L38.9634,111.258 L38.9634,115.872 L37.5984,115.872 L37.5984,105.09 L40.8354,105.09 C43.0074,105.09 44.0274,106.023 44.0274,108.138 C44.0274,109.833 43.3494,110.769 42.1014,110.997 Z M42.6204,108.192 C42.6204,106.785 42.0714,106.311 40.8474,106.311 L38.9634,106.311 L38.9634,110.136 L40.7934,110.136 C42.0564,110.136 42.6204,109.647 42.6204,108.192 Z M27.4404,105.09 L27.4404,115.872 L33.6084,115.872 L33.6504,114.597 L28.8054,114.597 L28.8054,110.853 L32.7564,110.853 L32.7564,109.662 L28.8054,109.662 L28.8054,106.383 L33.4194,106.383 L33.3924,105.09 L27.4404,105.09 Z M49.7004,105.09 L49.7004,114.567 L54.1614,114.567 L54.1134,115.872 L48.3234,115.872 L48.3234,105.09 L49.7004,105.09 Z" id="Fill-293"></path>
                <path d="M9.2745,53.1435 L57.0825,3.9495 L3.8205,36.8055 L9.2745,53.1435 Z M75.4515,32.0715 L68.2935,47.8305 L25.0155,40.4565 L26.1735,39.2595 L66.9015,46.1985 L59.2485,3.6945 L8.6865,55.7205 L2.1885,36.2625 L16.6095,6.1455 L35.4195,14.4315 L34.0005,15.3075 L17.2725,7.9365 L4.3965,34.8375 L60.0705,0.4935 L68.0775,44.9835 L73.6245,32.7705 L66.4035,29.5875 L66.1095,27.9555 L75.4515,32.0715 Z M39.1335,16.2915 L38.4255,16.7295 L41.7405,18.1905 L42.2505,17.6655 L39.1335,16.2915 Z M45.6975,19.1835 L45.1875,19.7085 L62.4015,27.2955 L62.2545,26.4795 L45.6975,19.1835 Z M5.3625,37.1235 L6.2625,36.5685 L21.5655,38.9415 L20.9835,39.5475 L5.3625,37.1235 Z" id="Fill-296"></path>
            </g>
        </g>
    </g>
</svg>